<svg width="600" height="600" viewBox="0 0 600 600" fill="none" xmlns="http://www.w3.org/2000/svg">
<path d="M400 466.667L270.968 321.212L245.161 315.152H232.258L212.903 321.212L193.548 333.333L141.935 363.636L90.3226 393.939L70.9677 406.061L51.6129 412.121H32.2581L12.9032 400L6.45161 393.939L0 381.818V369.697L6.45161 345.455L12.9032 333.333L25.8065 309.091L45.1613 284.848L77.4194 254.545L135.484 206.061L187.097 169.697L180.645 163.636L174.194 145.455L167.742 115.152L161.29 72.7273V54.5455L167.742 24.2424L174.194 12.1212L193.548 0L212.903 6.06061L232.258 24.2424L245.161 54.5455L251.613 66.6667L258.065 78.7879L270.968 84.8485L290.323 90.9091L367.742 60.6061L419.355 48.4848L438.71 54.5455L451.613 60.6061L464.516 78.7879L470.968 103.03L451.613 139.394L432.258 163.636L400 193.939L348.387 236.364L361.29 254.545L374.194 278.788L393.548 309.091L470.968 406.061L535.484 484.848L567.742 521.212L587.097 545.455L600 569.697V587.879L593.548 593.939L580.645 600H567.742L554.839 593.939L541.935 587.879L529.032 581.818L503.226 563.636L470.968 533.333L425.806 490.909L400 466.667Z" fill="#236EFF"/>
</svg>
