<svg width="752" height="822" viewBox="0 0 752 822" fill="none" xmlns="http://www.w3.org/2000/svg">
<path d="M542.3 541.4C566.5 528.4 594.2 521 623.7 521H623.8C626.8 521 628.2 517.4 626 515.4C595.321 487.868 560.276 465.631 522.3 449.6C521.9 449.4 521.5 449.3 521.1 449.1C583.2 404 623.6 330.7 623.6 248C623.6 111 512.8 0 376.1 0C239.4 0 128.7 111 128.7 248C128.7 330.7 169.1 404 231.3 449.1C230.9 449.3 230.5 449.4 230.1 449.6C185.4 468.5 145.3 495.6 110.8 530.2C76.4988 564.439 49.1909 605.027 30.3996 649.7C11.9109 693.446 1.93272 740.316 0.999571 787.8C0.97288 788.867 1.16008 789.929 1.55015 790.923C1.94022 791.917 2.52527 792.822 3.27081 793.587C4.01635 794.351 4.90731 794.958 5.89119 795.372C6.87506 795.787 7.93195 796 8.99957 796H68.8996C73.1996 796 76.7996 792.5 76.8996 788.2C78.8996 711 109.8 638.7 164.5 583.9C221 527.2 296.2 496 376.2 496C432.9 496 487.3 511.7 534.2 541.1C535.404 541.857 536.787 542.283 538.209 542.336C539.631 542.389 541.042 542.066 542.3 541.4ZM376.2 420C330.4 420 287.3 402.1 254.8 369.6C238.809 353.651 226.132 334.696 217.5 313.826C208.867 292.956 204.449 270.585 204.5 248C204.5 202.1 222.4 158.9 254.8 126.4C287.2 93.9 330.3 76 376.2 76C422.1 76 465.1 93.9 497.6 126.4C513.59 142.349 526.267 161.304 534.9 182.174C543.532 203.044 547.951 225.415 547.9 248C547.9 293.9 530 337.1 497.6 369.6C465.1 402.1 422 420 376.2 420ZM744 658H660V574C660 569.6 656.4 566 652 566H596C591.6 566 588 569.6 588 574V658H504C499.6 658 496 661.6 496 666V722C496 726.4 499.6 730 504 730H588V814C588 818.4 591.6 822 596 822H652C656.4 822 660 818.4 660 814V730H744C748.4 730 752 726.4 752 722V666C752 661.6 748.4 658 744 658Z" fill="white"/>
</svg>
