<svg width="89" height="86" viewBox="0 0 89 86" fill="none" xmlns="http://www.w3.org/2000/svg">
<path d="M54.7788 54.533C57.2278 53.2235 60.0309 52.4782 63.0163 52.4782H63.0264C63.33 52.4782 63.4717 52.1156 63.249 51.9141C60.1444 49.1409 56.5979 46.9011 52.7548 45.2863C52.7143 45.2662 52.6738 45.2561 52.6334 45.236C58.9178 40.6932 63.0062 33.31 63.0062 24.98C63.0062 11.1806 51.7934 0 37.9596 0C24.1259 0 12.9232 11.1806 12.9232 24.98C12.9232 33.31 17.0116 40.6932 23.3062 45.236C23.2657 45.2561 23.2252 45.2662 23.1847 45.2863C18.6612 47.1901 14.6031 49.9197 11.1118 53.4048C7.64063 56.8536 4.87713 60.9418 2.97548 65.4416C1.10446 69.848 0.0946859 74.569 0.000253056 79.3518C-0.00244797 79.4593 0.0164966 79.5663 0.055971 79.6664C0.0954454 79.7665 0.154651 79.8577 0.230098 79.9347C0.305546 80.0117 0.395709 80.0728 0.495275 80.1146C0.594841 80.1563 0.701797 80.1778 0.809838 80.1778H6.8716C7.30675 80.1778 7.67107 79.8252 7.68119 79.3921C7.88358 71.6161 11.0106 64.3336 16.5461 58.8138C22.2638 53.1027 29.8739 49.96 37.9698 49.96C43.7077 49.96 49.2129 51.5414 53.9591 54.5028C54.081 54.579 54.2209 54.622 54.3648 54.6273C54.5087 54.6326 54.6515 54.6 54.7788 54.533ZM37.9698 42.3049C33.3349 42.3049 28.9733 40.5019 25.6843 37.2283C24.0661 35.6218 22.7832 33.7125 21.9096 31.6104C21.036 29.5083 20.5889 27.2549 20.5941 24.98C20.5941 20.3567 22.4055 16.0053 25.6843 12.7317C28.9631 9.45816 33.3248 7.65516 37.9698 7.65516C42.6148 7.65516 46.9663 9.45816 50.2552 12.7317C51.8734 14.3382 53.1563 16.2475 54.0299 18.3496C54.9035 20.4518 55.3506 22.7052 55.3455 24.98C55.3455 29.6033 53.534 33.9547 50.2552 37.2283C46.9663 40.5019 42.6046 42.3049 37.9698 42.3049Z" fill="#236EFF"/>
<path d="M57.52 73.3H46.18V84.94H38.26V73.3H26.92V65.98H38.26V54.34H46.18V65.98H57.52V73.3Z" fill="#236EFF"/>
<path d="M86.674 60.7293C86.6552 60.6954 86.6289 60.6616 86.5989 60.6353C86.4111 60.4475 86.1068 60.4475 85.919 60.6353L79.4467 67.1076L76.8962 64.557L83.3722 58.081C83.4022 58.051 83.4248 58.0209 83.4473 57.9871C83.5825 57.758 83.5074 57.465 83.2783 57.3297C79.5895 55.151 74.7588 55.6506 71.5846 58.821C69.0679 61.3378 68.2339 64.9064 69.0866 68.1143L58.0804 79.1205C57.9677 79.2332 57.9753 79.4173 58.0917 79.5337L64.4663 85.9083C64.5827 86.0247 64.7706 86.0323 64.8795 85.9196L75.8819 74.9171C79.0936 75.7736 82.6622 74.9434 85.1827 72.4229C88.3531 69.2487 88.8527 64.418 86.674 60.7293V60.7293ZM83.2707 70.5071C81.0883 72.6896 77.8127 73.1103 75.2095 71.7693L74.879 72.0998L74.8752 72.0961L64.5827 82.3923L61.6077 79.4173L70.2511 70.7738C70.2511 70.7738 70.2511 70.7776 70.2549 70.7776L72.2382 68.7942C70.8972 66.191 71.3179 62.9155 73.5004 60.733C74.2043 60.0285 75.0519 59.4842 75.9855 59.1374C76.919 58.7905 77.9164 58.6493 78.9096 58.7233L73.9173 63.7118C73.6919 63.9376 73.5652 64.2436 73.5652 64.5626C73.5652 64.8817 73.6919 65.1877 73.9173 65.4135L78.594 70.0902C78.8198 70.3156 79.1258 70.4423 79.4449 70.4423C79.7639 70.4423 80.0699 70.3156 80.2957 70.0902L85.2842 65.1017C85.4232 67.0475 84.7432 69.0384 83.2707 70.5071V70.5071Z" fill="#236EFF"/>
</svg>
