<svg width="6" height="6" viewBox="0 0 6 6" fill="none" xmlns="http://www.w3.org/2000/svg">
<g clip-path="url(#clip0_361_31)">
<path d="M3.52687 0.39375C3.372 -0.13125 2.628 -0.13125 2.47312 0.39375L2.43562 0.52125C2.41248 0.599848 2.37204 0.67227 2.31727 0.733205C2.2625 0.794139 2.19478 0.842042 2.11909 0.873399C2.04339 0.904756 1.96164 0.918773 1.87982 0.914421C1.798 0.910069 1.71819 0.88746 1.64625 0.84825L1.53 0.7845C1.04887 0.52275 0.52275 1.04888 0.784875 1.52962L0.84825 1.64625C1.0155 1.95375 0.856875 2.33662 0.52125 2.43562L0.39375 2.47312C-0.13125 2.628 -0.13125 3.372 0.39375 3.52687L0.52125 3.56438C0.599848 3.58752 0.67227 3.62796 0.733205 3.68273C0.794139 3.7375 0.842042 3.80522 0.873399 3.88091C0.904756 3.95661 0.918773 4.03836 0.914421 4.12018C0.910069 4.202 0.88746 4.28181 0.84825 4.35375L0.7845 4.47C0.52275 4.95113 1.04888 5.47725 1.52962 5.21512L1.64625 5.15175C1.71819 5.11254 1.798 5.08993 1.87982 5.08558C1.96164 5.08123 2.04339 5.09524 2.11909 5.1266C2.19478 5.15796 2.2625 5.20586 2.31727 5.2668C2.37204 5.32773 2.41248 5.40015 2.43562 5.47875L2.47312 5.60625C2.628 6.13125 3.372 6.13125 3.52687 5.60625L3.56438 5.47875C3.58752 5.40015 3.62796 5.32773 3.68273 5.2668C3.7375 5.20586 3.80522 5.15796 3.88091 5.1266C3.95661 5.09524 4.03836 5.08123 4.12018 5.08558C4.202 5.08993 4.28181 5.11254 4.35375 5.15175L4.47 5.2155C4.95113 5.47725 5.47725 4.95112 5.21512 4.47037L5.15175 4.35375C5.11254 4.28181 5.08993 4.202 5.08558 4.12018C5.08123 4.03836 5.09524 3.95661 5.1266 3.88091C5.15796 3.80522 5.20586 3.7375 5.2668 3.68273C5.32773 3.62796 5.40015 3.58752 5.47875 3.56438L5.60625 3.52687C6.13125 3.372 6.13125 2.628 5.60625 2.47312L5.47875 2.43562C5.40015 2.41248 5.32773 2.37204 5.2668 2.31727C5.20586 2.2625 5.15796 2.19478 5.1266 2.11909C5.09524 2.04339 5.08123 1.96164 5.08558 1.87982C5.08993 1.798 5.11254 1.71819 5.15175 1.64625L5.2155 1.53C5.47725 1.04887 4.95112 0.52275 4.47037 0.784875L4.35375 0.84825C4.28181 0.88746 4.202 0.910069 4.12018 0.914421C4.03836 0.918773 3.95661 0.904756 3.88091 0.873399C3.80522 0.842042 3.7375 0.794139 3.68273 0.733205C3.62796 0.67227 3.58752 0.599848 3.56438 0.52125L3.52687 0.39375V0.39375ZM3 4.09875C2.70859 4.09875 2.42912 3.98299 2.22307 3.77693C2.01701 3.57088 1.90125 3.29141 1.90125 3C1.90125 2.70859 2.01701 2.42912 2.22307 2.22307C2.42912 2.01701 2.70859 1.90125 3 1.90125C3.29131 1.90125 3.57068 2.01697 3.77667 2.22296C3.98265 2.42894 4.09837 2.70832 4.09837 2.99963C4.09837 3.29093 3.98265 3.57031 3.77667 3.77629C3.57068 3.98228 3.29131 4.098 3 4.098V4.09875Z" fill="white"/>
</g>
<defs>
<clipPath id="clip0_361_31">
<rect width="6" height="6" fill="white"/>
</clipPath>
</defs>
</svg>
