<svg width="15" height="14" viewBox="0 0 15 14" fill="none" xmlns="http://www.w3.org/2000/svg">
<path d="M9.72453 9.22093C10.1286 8.99951 10.5911 8.87348 11.0837 8.87348H11.0854C11.1355 8.87348 11.1589 8.81217 11.1221 8.7781C10.6099 8.30918 10.0247 7.93045 9.39057 7.65742C9.38389 7.65401 9.37722 7.65231 9.37054 7.6489C10.4075 6.88078 11.082 5.63236 11.082 4.22384C11.082 1.89051 9.23195 0 6.94937 0C4.6668 0 2.81837 1.89051 2.81837 4.22384C2.81837 5.63236 3.49296 6.88078 4.53155 7.6489C4.52487 7.65231 4.51819 7.65401 4.51151 7.65742C3.76513 7.97932 3.09555 8.44088 2.51948 9.03017C1.94674 9.61331 1.49076 10.3046 1.17699 11.0655C0.86827 11.8105 0.701658 12.6088 0.686077 13.4175C0.685631 13.4357 0.688757 13.4538 0.69527 13.4707C0.701784 13.4876 0.711553 13.5031 0.724001 13.5161C0.73645 13.5291 0.751327 13.5394 0.767756 13.5465C0.784184 13.5535 0.801832 13.5572 0.819658 13.5572H1.81985C1.89165 13.5572 1.95176 13.4976 1.95343 13.4243C1.98683 12.1095 2.50278 10.8781 3.41615 9.94477C4.35957 8.97908 5.61523 8.44769 6.95104 8.44769C7.8978 8.44769 8.80616 8.71508 9.58928 9.21581C9.60939 9.22871 9.63249 9.23597 9.65623 9.23687C9.67997 9.23776 9.70353 9.23227 9.72453 9.22093ZM6.95104 7.15328C6.18629 7.15328 5.46662 6.84842 4.92395 6.29489C4.65694 6.02325 4.44527 5.70041 4.30112 5.34497C4.15698 4.98952 4.0832 4.6085 4.08405 4.22384C4.08405 3.44209 4.38294 2.70633 4.92395 2.1528C5.46495 1.59927 6.18462 1.2944 6.95104 1.2944C7.71747 1.2944 8.43547 1.59927 8.97814 2.1528C9.24515 2.42444 9.45682 2.74728 9.60097 3.10272C9.74511 3.45817 9.81889 3.83919 9.81804 4.22384C9.81804 5.0056 9.51915 5.74136 8.97814 6.29489C8.43547 6.84842 7.7158 7.15328 6.95104 7.15328Z" fill="white"/>
<path d="M14.7359 8.93911C14.7336 8.93676 14.2576 9.40756 13.3103 10.3539L12.6456 9.68878L14.0619 8.27169C13.3165 7.82282 12.359 7.93797 11.7382 8.55918C11.5009 8.7965 11.3301 9.09209 11.243 9.4163C11.1559 9.7405 11.1555 10.0819 11.2418 10.4063L11.2559 10.4588L9.0364 12.6789C8.98787 12.7274 8.98787 12.8073 9.0364 12.8559L10.1434 13.9636C10.192 14.0121 10.2718 14.0121 10.3204 13.9636L12.5383 11.7443L12.5908 11.7584C13.2461 11.9331 13.9499 11.7514 14.4384 11.2626C15.0601 10.6413 15.1751 9.6833 14.7359 8.93911V8.93911Z" fill="white"/>
</svg>
