<svg width="21" height="21" viewBox="0 0 21 21" fill="none" xmlns="http://www.w3.org/2000/svg">
<path d="M15.8193 1.53921C13.8853 3.47451 11.948 5.41016 10.0161 7.34581C8.08075 5.41118 6.14544 3.47553 4.20946 1.53921C1.97011 -0.699127 -1.49963 2.7723 0.7387 5.01064C2.67333 6.94425 4.60965 8.88092 6.54191 10.8139C4.6083 12.7485 2.67231 14.6848 0.7387 16.6205C-1.49963 18.8581 1.9718 22.3285 4.20946 20.0915C6.14409 18.1559 8.07939 16.2206 10.0161 14.2849C11.9514 16.2206 13.8853 18.1552 15.8193 20.0915C18.0579 22.3289 21.528 18.8581 19.2914 16.6208C17.3557 14.6851 15.4204 12.7505 13.4848 10.8142C15.4208 8.87888 17.3561 6.94324 19.2914 5.00759C21.528 2.76993 18.0579 -0.701498 15.8193 1.53684" fill="white"/>
</svg>
