<svg width="17" height="20" viewBox="0 0 17 20" fill="none" xmlns="http://www.w3.org/2000/svg">
<path d="M1.66667 3.475V14.1667C1.6665 15.2245 2.06872 16.2429 2.79173 17.0151C3.51475 17.7873 4.50442 18.2556 5.56 18.325L5.83333 18.3333H13.19C13.0177 18.8207 12.6985 19.2427 12.2765 19.5411C11.8545 19.8396 11.3503 19.9999 10.8333 20H5C3.67392 20 2.40215 19.4732 1.46447 18.5355C0.526785 17.5979 3.43728e-07 16.3261 3.43728e-07 15V5.83333C-0.0002708 5.31612 0.15988 4.81156 0.45838 4.38918C0.756881 3.9668 1.17904 3.6474 1.66667 3.475V3.475ZM14.1667 0C14.8297 0 15.4656 0.263392 15.9344 0.732233C16.4033 1.20107 16.6667 1.83696 16.6667 2.5V14.1667C16.6667 14.8297 16.4033 15.4656 15.9344 15.9344C15.4656 16.4033 14.8297 16.6667 14.1667 16.6667H5.83333C5.17029 16.6667 4.53441 16.4033 4.06557 15.9344C3.59673 15.4656 3.33333 14.8297 3.33333 14.1667V2.5C3.33333 1.83696 3.59673 1.20107 4.06557 0.732233C4.53441 0.263392 5.17029 0 5.83333 0H14.1667Z" fill="#999999"/>
</svg>
