<svg width="34" height="23" viewBox="0 0 34 23" fill="none" xmlns="http://www.w3.org/2000/svg">
<path d="M16.875 4.6875C16.2539 4.69721 15.6375 4.79587 15.0445 4.98047C15.3188 5.46288 15.4649 6.00756 15.4687 6.5625C15.4687 6.9934 15.3838 7.42008 15.2189 7.81818C15.054 8.21628 14.8124 8.578 14.5077 8.88269C14.203 9.18739 13.8412 9.42908 13.4431 9.59398C13.045 9.75888 12.6184 9.84375 12.1875 9.84375C11.6325 9.8399 11.0878 9.69384 10.6054 9.41953C10.2248 10.7395 10.2692 12.1458 10.7322 13.4392C11.1953 14.7326 12.0535 15.8475 13.1854 16.626C14.3173 17.4045 15.6655 17.8072 17.0389 17.7769C18.4123 17.7466 19.7414 17.285 20.8379 16.4574C21.9344 15.6298 22.7428 14.4782 23.1484 13.1657C23.554 11.8531 23.5364 10.4463 23.098 9.1443C22.6597 7.84234 21.8228 6.71132 20.7059 5.91144C19.589 5.11155 18.2487 4.68335 16.875 4.6875V4.6875ZM33.5461 10.3945C30.3685 4.19473 24.0779 0 16.875 0C9.67204 0 3.37966 4.19766 0.203874 10.3951C0.0698363 10.6603 0 10.9532 0 11.2503C0 11.5474 0.0698363 11.8403 0.203874 12.1055C3.38141 18.3053 9.67204 22.5 16.875 22.5C24.0779 22.5 30.3703 18.3023 33.5461 12.1049C33.6801 11.8397 33.7499 11.5468 33.7499 11.2497C33.7499 10.9526 33.6801 10.6597 33.5461 10.3945V10.3945ZM16.875 19.6875C11.0947 19.6875 5.79548 16.4648 2.93376 11.25C5.79548 6.03516 11.0941 2.8125 16.875 2.8125C22.6558 2.8125 27.9545 6.03516 30.8162 11.25C27.955 16.4648 22.6558 19.6875 16.875 19.6875Z" fill="#999999"/>
</svg>
