<svg width="34" height="24" viewBox="0 0 34 24" fill="none" xmlns="http://www.w3.org/2000/svg">
<path d="M16.875 5.4375C16.2539 5.44721 15.6375 5.54587 15.0445 5.73047C15.3188 6.21288 15.4649 6.75756 15.4687 7.3125C15.4687 7.7434 15.3838 8.17008 15.2189 8.56818C15.054 8.96628 14.8124 9.328 14.5077 9.63269C14.203 9.93739 13.8412 10.1791 13.4431 10.344C13.045 10.5089 12.6184 10.5938 12.1875 10.5938C11.6325 10.5899 11.0878 10.4438 10.6054 10.1695C10.2248 11.4895 10.2692 12.8958 10.7322 14.1892C11.1953 15.4826 12.0535 16.5975 13.1854 17.376C14.3173 18.1545 15.6655 18.5572 17.0389 18.5269C18.4123 18.4966 19.7414 18.035 20.8379 17.2074C21.9344 16.3798 22.7428 15.2282 23.1484 13.9157C23.554 12.6031 23.5364 11.1963 23.098 9.8943C22.6597 8.59234 21.8228 7.46132 20.7059 6.66144C19.589 5.86155 18.2487 5.43335 16.875 5.4375ZM33.5461 11.1445C30.3685 4.94473 24.0779 0.75 16.875 0.75C9.67204 0.75 3.37966 4.94766 0.203874 11.1451C0.0698363 11.4103 0 11.7032 0 12.0003C0 12.2974 0.0698363 12.5903 0.203874 12.8555C3.38141 19.0553 9.67204 23.25 16.875 23.25C24.0779 23.25 30.3703 19.0523 33.5461 12.8549C33.6801 12.5897 33.7499 12.2968 33.7499 11.9997C33.7499 11.7026 33.6801 11.4097 33.5461 11.1445ZM16.875 20.4375C11.0947 20.4375 5.79548 17.2148 2.93376 12C5.79548 6.78516 11.0941 3.5625 16.875 3.5625C22.6558 3.5625 27.9545 6.78516 30.8162 12C27.955 17.2148 22.6558 20.4375 16.875 20.4375Z" fill="#555555"/>
</svg>
