<svg width="32" height="31" viewBox="0 0 32 31" fill="none" xmlns="http://www.w3.org/2000/svg">
<path d="M30.9928 12.1458C31.1402 11.7901 31.1787 11.3987 31.1035 11.021C31.0283 10.6434 30.8428 10.2966 30.5705 10.0244L20.8391 0.292969L18.087 3.04501L24.4961 9.45412H0.000225483V13.3467H29.1945C29.5794 13.3468 29.9557 13.2327 30.2758 13.019C30.5959 12.8052 30.8454 12.5014 30.9928 12.1458V12.1458ZM0.148143 18.4401C0.000800437 18.7958 -0.0377189 19.1873 0.0374602 19.5649C0.112639 19.9425 0.298138 20.2894 0.570487 20.5616L10.3019 30.293L13.0539 27.5409L6.64483 21.1318H31.1407V17.2393H1.94651C1.56154 17.2389 1.18513 17.3528 0.864983 17.5666C0.544832 17.7804 0.295348 18.0844 0.148143 18.4401V18.4401Z" fill="white"/>
</svg>
