<svg width="22" height="21" viewBox="0 0 22 21" fill="none" xmlns="http://www.w3.org/2000/svg">
<path d="M13.6006 13.603C14.2086 13.2764 14.9046 13.0905 15.6458 13.0905H15.6483C15.7237 13.0905 15.7589 13 15.7036 12.9497C14.9328 12.258 14.0522 11.6993 13.0981 11.2965C13.088 11.2915 13.078 11.2889 13.0679 11.2839C14.6282 10.1508 15.6433 8.30905 15.6433 6.23116C15.6433 2.78894 12.8594 0 9.42469 0C5.99001 0 3.20861 2.78894 3.20861 6.23116C3.20861 8.30905 4.22368 10.1508 5.7865 11.2839C5.77644 11.2889 5.7664 11.2915 5.75634 11.2965C4.63323 11.7714 3.62569 12.4523 2.75886 13.3216C1.89703 14.1819 1.2109 15.2017 0.738756 16.3241C0.274216 17.4233 0.0235088 18.6009 6.28292e-05 19.794C-0.000607787 19.8208 0.0040958 19.8475 0.0138966 19.8724C0.0236973 19.8974 0.0383969 19.9202 0.0571292 19.9394C0.0758614 19.9586 0.0982473 19.9738 0.122968 19.9842C0.147688 19.9946 0.174243 20 0.201068 20H1.70609C1.81413 20 1.90459 19.9121 1.9071 19.804C1.95735 17.8643 2.73373 16.0477 4.1081 14.6709C5.5277 13.2462 7.41715 12.4623 9.4272 12.4623C10.8518 12.4623 12.2187 12.8568 13.397 13.5955C13.4273 13.6145 13.4621 13.6252 13.4978 13.6265C13.5335 13.6279 13.569 13.6197 13.6006 13.603ZM9.4272 10.5528C8.27645 10.5528 7.19353 10.103 6.37695 9.28643C5.97518 8.8857 5.65666 8.40944 5.43976 7.88507C5.22286 7.36071 5.11185 6.79861 5.11313 6.23116C5.11313 5.07789 5.56288 3.99246 6.37695 3.17588C7.19102 2.3593 8.27393 1.90955 9.4272 1.90955C10.5805 1.90955 11.6609 2.3593 12.4775 3.17588C12.8792 3.57661 13.1977 4.05288 13.4146 4.57724C13.6315 5.1016 13.7426 5.6637 13.7413 6.23116C13.7413 7.38442 13.2915 8.46985 12.4775 9.28643C11.6609 10.103 10.578 10.5528 9.4272 10.5528Z" fill="#0A84FF"/>
<path d="M11 14.959L14.7846 19.8743" stroke="#0A84FF" stroke-width="2" stroke-linecap="round" stroke-linejoin="round"/>
<path d="M20.7793 14L15.0481 20" stroke="#0A84FF" stroke-width="2" stroke-linecap="round" stroke-linejoin="round"/>
</svg>
