<svg width="77" height="81" viewBox="0 0 77 81" fill="none" xmlns="http://www.w3.org/2000/svg">
<path d="M54.7788 54.533C57.2278 53.2235 60.0309 52.4782 63.0163 52.4782H63.0264C63.33 52.4782 63.4717 52.1156 63.249 51.9141C60.1444 49.1409 56.5979 46.9011 52.7548 45.2863C52.7143 45.2662 52.6738 45.2561 52.6334 45.236C58.9178 40.6932 63.0062 33.31 63.0062 24.98C63.0062 11.1806 51.7934 0 37.9596 0C24.1259 0 12.9232 11.1806 12.9232 24.98C12.9232 33.31 17.0116 40.6932 23.3062 45.236C23.2657 45.2561 23.2252 45.2662 23.1847 45.2863C18.6612 47.1901 14.6031 49.9197 11.1118 53.4048C7.64063 56.8536 4.87713 60.9418 2.97548 65.4416C1.10446 69.848 0.0946859 74.569 0.000253056 79.3518C-0.00244797 79.4593 0.0164966 79.5663 0.055971 79.6664C0.0954454 79.7665 0.154651 79.8577 0.230098 79.9347C0.305546 80.0117 0.395709 80.0728 0.495275 80.1146C0.594841 80.1563 0.701797 80.1778 0.809838 80.1778H6.8716C7.30675 80.1778 7.67107 79.8252 7.68119 79.3921C7.88358 71.6161 11.0106 64.3336 16.5461 58.8138C22.2638 53.1027 29.8739 49.96 37.9698 49.96C43.7077 49.96 49.2129 51.5414 53.9591 54.5028C54.081 54.579 54.2209 54.622 54.3648 54.6273C54.5087 54.6326 54.6515 54.6 54.7788 54.533ZM37.9698 42.3049C33.3349 42.3049 28.9733 40.5019 25.6843 37.2283C24.0661 35.6218 22.7832 33.7125 21.9096 31.6104C21.036 29.5083 20.5889 27.2549 20.5941 24.98C20.5941 20.3567 22.4055 16.0053 25.6843 12.7317C28.9631 9.45816 33.3248 7.65516 37.9698 7.65516C42.6148 7.65516 46.9663 9.45816 50.2552 12.7317C51.8734 14.3382 53.1563 16.2475 54.0299 18.3496C54.9035 20.4518 55.3506 22.7052 55.3455 24.98C55.3455 29.6033 53.534 33.9547 50.2552 37.2283C46.9663 40.5019 42.6046 42.3049 37.9698 42.3049Z" fill="#236EFF"/>
<path d="M75.8034 57.2563C75.7865 57.2259 75.7628 57.1955 75.7358 57.1718C75.5668 57.0028 75.293 57.0028 75.124 57.1718L69.2997 62.9968L67.0044 60.7013L72.8321 54.8729C72.8591 54.8459 72.8794 54.8188 72.8997 54.7884C73.0214 54.5822 72.9538 54.3185 72.7476 54.1968C69.4281 52.2359 65.081 52.6856 62.2246 55.5389C59.9598 57.804 59.2094 61.0157 59.9767 63.9029L50.0724 73.8085C49.971 73.9099 49.9777 74.0755 50.0825 74.1803L55.8189 79.9175C55.9237 80.0223 56.0927 80.029 56.1908 79.9276L66.0917 70.0254C68.9819 70.7962 72.1932 70.0491 74.4614 67.7806C77.3144 64.9239 77.764 60.5762 75.8034 57.2563V57.2563ZM72.7408 66.0564C70.7769 68.0206 67.8292 68.3993 65.4867 67.1923L65.1892 67.4898L65.1858 67.4865L55.9237 76.7531L53.2465 74.0755L61.0246 66.2964C61.0246 66.2964 61.0246 66.2998 61.028 66.2998L62.8128 64.5148C61.606 62.1719 61.9846 59.2239 63.9486 57.2597C64.582 56.6256 65.3448 56.1358 66.1849 55.8236C67.025 55.5115 67.9226 55.3844 68.8163 55.451L64.3238 59.9406C64.1209 60.1438 64.0069 60.4192 64.0069 60.7064C64.0069 60.9935 64.1209 61.269 64.3238 61.4721L68.5323 65.6811C68.7355 65.8841 69.0108 65.9981 69.298 65.9981C69.5851 65.9981 69.8605 65.8841 70.0636 65.6811L74.5527 61.1915C74.6777 62.9427 74.0659 64.7345 72.7408 66.0564V66.0564Z" fill="#236EFF"/>
</svg>
