<svg width="11" height="11" viewBox="0 0 11 11" fill="none" xmlns="http://www.w3.org/2000/svg">
<path d="M6.66929 5.25529L10.2043 1.71929C10.2998 1.62704 10.376 1.5167 10.4284 1.39469C10.4808 1.27269 10.5084 1.14147 10.5095 1.00869C10.5107 0.87591 10.4854 0.744231 10.4351 0.621334C10.3848 0.498438 10.3106 0.386786 10.2167 0.292893C10.1228 0.199001 10.0111 0.124747 9.88824 0.0744666C9.76535 0.0241857 9.63367 -0.00111606 9.50089 3.77567e-05C9.36811 0.00119157 9.23689 0.0287779 9.11488 0.0811869C8.99288 0.133596 8.88254 0.209778 8.79029 0.305288L5.25429 3.84029L1.71929 0.305288C1.62704 0.209778 1.5167 0.133596 1.39469 0.0811869C1.27269 0.0287779 1.14147 0.00119157 1.00869 3.77567e-05C0.87591 -0.00111606 0.744231 0.0241857 0.621334 0.0744666C0.498438 0.124747 0.386786 0.199001 0.292893 0.292893C0.199001 0.386786 0.124747 0.498438 0.0744666 0.621334C0.0241857 0.744231 -0.00111606 0.87591 3.77567e-05 1.00869C0.00119157 1.14147 0.0287779 1.27269 0.0811869 1.39469C0.133596 1.5167 0.209778 1.62704 0.305288 1.71929L3.84029 5.25429L0.305288 8.79029C0.209778 8.88254 0.133596 8.99288 0.0811869 9.11488C0.0287779 9.23689 0.00119157 9.36811 3.77567e-05 9.50089C-0.00111606 9.63367 0.0241857 9.76535 0.0744666 9.88824C0.124747 10.0111 0.199001 10.1228 0.292893 10.2167C0.386786 10.3106 0.498438 10.3848 0.621334 10.4351C0.744231 10.4854 0.87591 10.5107 1.00869 10.5095C1.14147 10.5084 1.27269 10.4808 1.39469 10.4284C1.5167 10.376 1.62704 10.2998 1.71929 10.2043L5.25429 6.66929L8.79029 10.2043C8.88254 10.2998 8.99288 10.376 9.11488 10.4284C9.23689 10.4808 9.36811 10.5084 9.50089 10.5095C9.63367 10.5107 9.76535 10.4854 9.88824 10.4351C10.0111 10.3848 10.1228 10.3106 10.2167 10.2167C10.3106 10.1228 10.3848 10.0111 10.4351 9.88824C10.4854 9.76535 10.5107 9.63367 10.5095 9.50089C10.5084 9.36811 10.4808 9.23689 10.4284 9.11488C10.376 8.99288 10.2998 8.88254 10.2043 8.79029L6.66929 5.25429V5.25529Z" fill="#E53535"/>
</svg>
