<svg width="25" height="30" viewBox="0 0 25 30" fill="none" xmlns="http://www.w3.org/2000/svg">
<path d="M2.5 5.2125V21.25C2.49976 22.8368 3.10308 24.3643 4.1876 25.5226C5.27212 26.6809 6.75662 27.3834 8.34 27.4875L8.75 27.5H19.785C19.5265 28.231 19.0478 28.864 18.4147 29.3117C17.7817 29.7594 17.0254 29.9999 16.25 30H7.5C5.51088 30 3.60322 29.2098 2.1967 27.8033C0.790177 26.3968 5.15592e-07 24.4891 5.15592e-07 22.5V8.75C-0.0004062 7.97419 0.23982 7.21734 0.68757 6.58377C1.13532 5.95021 1.76856 5.4711 2.5 5.2125V5.2125ZM21.25 0C22.2446 0 23.1984 0.395088 23.9017 1.09835C24.6049 1.80161 25 2.75544 25 3.75V21.25C25 22.2446 24.6049 23.1984 23.9017 23.9017C23.1984 24.6049 22.2446 25 21.25 25H8.75C7.75544 25 6.80161 24.6049 6.09835 23.9017C5.39509 23.1984 5 22.2446 5 21.25V3.75C5 2.75544 5.39509 1.80161 6.09835 1.09835C6.80161 0.395088 7.75544 0 8.75 0H21.25Z" fill="white"/>
</svg>
