<svg width="30" height="30" viewBox="0 0 30 30" fill="none" xmlns="http://www.w3.org/2000/svg">
<path fill-rule="evenodd" clip-rule="evenodd" d="M0.728107 0.7924C1.19492 0.32617 1.8277 0.0642937 2.48746 0.0642937C3.14722 0.0642937 3.78 0.32617 4.24681 0.7924L14.9357 11.4813L25.6246 0.7924C25.8525 0.547795 26.1274 0.351603 26.4328 0.215529C26.7382 0.0794547 27.0678 0.00628555 27.4021 0.00038746C27.7364 -0.00551063 28.0685 0.0559825 28.3785 0.181199C28.6885 0.306415 28.9701 0.492789 29.2065 0.729202C29.4429 0.965615 29.6293 1.24722 29.7545 1.55723C29.8797 1.86723 29.9412 2.19928 29.9353 2.53357C29.9294 2.86786 29.8562 3.19753 29.7202 3.50292C29.5841 3.80832 29.3879 4.08318 29.1433 4.31111L18.4544 15L29.1433 25.6889C29.3879 25.9168 29.5841 26.1917 29.7202 26.4971C29.8562 26.8025 29.9294 27.1321 29.9353 27.4664C29.9412 27.8007 29.8797 28.1328 29.7545 28.4428C29.6293 28.7528 29.4429 29.0344 29.2065 29.2708C28.9701 29.5072 28.6885 29.6936 28.3785 29.8188C28.0685 29.944 27.7364 30.0055 27.4021 29.9996C27.0678 29.9937 26.7382 29.9205 26.4328 29.7845C26.1274 29.6484 25.8525 29.4522 25.6246 29.2076L14.9357 18.5187L4.24681 29.2076C3.77486 29.6474 3.15063 29.8868 2.50564 29.8754C1.86065 29.864 1.24526 29.6027 0.789114 29.1466C0.332967 28.6904 0.0716798 28.075 0.0602997 27.4301C0.0489196 26.7851 0.288335 26.1608 0.728107 25.6889L11.417 15L0.728107 4.31111C0.261877 3.84429 0 3.21151 0 2.55175C0 1.89199 0.261877 1.25921 0.728107 0.7924V0.7924Z" fill="#E53535"/>
</svg>
