<svg width="16" height="16" viewBox="0 0 16 16" fill="none" xmlns="http://www.w3.org/2000/svg">
<path d="M11.212 10.5382C11.6738 10.2852 12.2024 10.1411 12.7654 10.1411H12.7673C12.8245 10.1411 12.8513 10.071 12.8093 10.0321C12.2238 9.49621 11.5551 9.06338 10.8304 8.75134C10.8227 8.74745 10.8151 8.7455 10.8075 8.74161C11.9925 7.86375 12.7635 6.43698 12.7635 4.82725C12.7635 2.16058 10.6491 0 8.04043 0C5.43177 0 3.31928 2.16058 3.31928 4.82725C3.31928 6.43698 4.09023 7.86375 5.2772 8.74161C5.26957 8.7455 5.26193 8.74745 5.2543 8.75134C4.40129 9.11922 3.63606 9.64672 2.97769 10.3202C2.32313 10.9866 1.80201 11.7767 1.44341 12.6462C1.09059 13.4977 0.900179 14.4101 0.882372 15.3343C0.881863 15.3551 0.885435 15.3757 0.892879 15.3951C0.900322 15.4144 0.911487 15.4321 0.925714 15.4469C0.939941 15.4618 0.956944 15.4736 0.975719 15.4817C0.994494 15.4898 1.01466 15.4939 1.03504 15.4939H2.17811C2.26017 15.4939 2.32887 15.4258 2.33078 15.3421C2.36894 13.8394 2.95861 12.4321 4.00245 11.3655C5.08064 10.2618 6.51569 9.6545 8.04234 9.6545C9.12434 9.6545 10.1625 9.9601 11.0575 10.5324C11.0805 10.5471 11.1068 10.5554 11.134 10.5564C11.1611 10.5574 11.188 10.5512 11.212 10.5382ZM8.04234 8.17518C7.16833 8.17518 6.34585 7.82676 5.72565 7.19416C5.4205 6.88372 5.17859 6.51476 5.01385 6.10853C4.84911 5.70231 4.7648 5.26685 4.76577 4.82725C4.76577 3.93382 5.10736 3.09294 5.72565 2.46034C6.34394 1.82774 7.16642 1.47932 8.04234 1.47932C8.91825 1.47932 9.73882 1.82774 10.359 2.46034C10.6642 2.77078 10.9061 3.13975 11.0708 3.54597C11.2356 3.95219 11.3199 4.38765 11.3189 4.82725C11.3189 5.72068 10.9773 6.56156 10.359 7.19416C9.73882 7.82676 8.91634 8.17518 8.04234 8.17518ZM15.0611 12.8078H13.4581V11.1727C13.4581 11.0871 13.3894 11.017 13.3054 11.017H12.2368C12.1528 11.017 12.0841 11.0871 12.0841 11.1727V12.8078H10.4811C10.3972 12.8078 10.3285 12.8779 10.3285 12.9635V14.0535C10.3285 14.1392 10.3972 14.2092 10.4811 14.2092H12.0841V15.8443C12.0841 15.9299 12.1528 16 12.2368 16H13.3054C13.3894 16 13.4581 15.9299 13.4581 15.8443V14.2092H15.0611C15.145 14.2092 15.2137 14.1392 15.2137 14.0535V12.9635C15.2137 12.8779 15.145 12.8078 15.0611 12.8078Z" fill="white"/>
</svg>
