<svg width="19" height="20" viewBox="0 0 19 20" fill="none" xmlns="http://www.w3.org/2000/svg">
<path d="M10.9969 18.8475C11.1712 18.7621 11.3181 18.6295 11.421 18.4649C11.5239 18.3002 11.5786 18.1101 11.579 17.916V12.3159C11.579 12.0401 11.6896 11.7749 11.8875 11.5791L18.3307 5.20638C18.5258 5.01373 18.6808 4.78428 18.7867 4.53132C18.8926 4.27836 18.9473 4.00691 18.9475 3.73268V1.04213C18.947 0.90455 18.9193 0.768426 18.8661 0.641553C18.8128 0.51468 18.7351 0.39955 18.6374 0.302753C18.5396 0.205956 18.4237 0.129392 18.2963 0.0774453C18.1689 0.0254982 18.0325 -0.000812481 17.8949 1.91144e-05H1.05264C0.47053 1.91144e-05 0 0.465286 0 1.04213V3.73268C0 4.28532 0.222107 4.81585 0.616847 5.20638L7.06006 11.5791C7.15768 11.6754 7.23522 11.7901 7.28816 11.9166C7.3411 12.0431 7.36841 12.1788 7.36848 12.3159V18.9581C7.36848 19.7318 8.19165 20.2349 8.89165 19.8886L10.9969 18.8475Z" fill="#0A84FF"/>
</svg>
