<svg width="35" height="30" viewBox="0 0 35 30" fill="none" xmlns="http://www.w3.org/2000/svg">
<path d="M23.4364 2.59622C23.9062 2.91619 24.2295 3.40964 24.3354 3.96803C24.4413 4.52642 24.321 5.10401 24.0011 5.57372C23.6811 6.04344 23.1877 6.36681 22.6293 6.4727C22.0709 6.57859 21.4933 6.45833 21.0236 6.13836C19.0452 4.79348 16.6737 4.14934 14.2869 4.30857C11.9 4.4678 9.63504 5.42123 7.85287 7.01697C6.0707 8.61272 4.87382 10.759 4.4529 13.1138C4.03198 15.4687 4.41123 17.8967 5.53025 20.011C6.64926 22.1253 8.44366 23.8043 10.6276 24.7806C12.8115 25.7568 15.2593 25.9741 17.581 25.3978C19.9028 24.8216 21.9649 23.4849 23.4388 21.6008C24.9128 19.7166 25.7138 17.3934 25.7143 15.0012C25.7143 14.4329 25.9401 13.8879 26.3419 13.486C26.7438 13.0841 27.2888 12.8584 27.8571 12.8584C28.4255 12.8584 28.9705 13.0841 29.3724 13.486C29.7742 13.8879 30 14.4329 30 15.0012C29.9995 18.3505 28.8781 21.6032 26.8144 24.2412C24.7507 26.8792 21.8636 28.7506 18.6129 29.5573C15.3623 30.364 11.9351 30.0596 8.87757 28.6925C5.82 27.3255 3.3079 24.9745 1.74153 22.0141C0.175156 19.0536 -0.355375 15.6542 0.234463 12.3573C0.824302 9.06034 2.50057 6.05568 4.9962 3.82198C7.49184 1.58829 10.6632 0.254086 14.0051 0.0319437C17.347 -0.190198 20.6671 0.712504 23.4364 2.59622V2.59622Z" fill="#FFA500"/>
<path d="M22.5834 20.3713C22.3463 20.523 22.0816 20.6265 21.8046 20.6759C21.5275 20.7253 21.2434 20.7196 20.9685 20.6592C20.6936 20.5988 20.4333 20.4849 20.2024 20.3239C19.9716 20.1629 19.7747 19.958 19.623 19.7209C19.4713 19.4839 19.3678 19.2192 19.3184 18.9421C19.269 18.6651 19.2747 18.381 19.3351 18.1061C19.3955 17.8312 19.5094 17.5709 19.6704 17.34C19.8314 17.1092 20.0363 16.9123 20.2734 16.7606L27.7348 11.9884C28.2135 11.6922 28.7895 11.5962 29.3383 11.7212C29.8872 11.8463 30.3648 12.1822 30.668 12.6565C30.9712 13.1308 31.0755 13.7054 30.9585 14.256C30.8415 14.8067 30.5125 15.2891 30.0426 15.5992L22.5834 20.3713V20.3713Z" fill="#FFA500"/>
<path d="M34.0778 20.1655C34.2966 20.6822 34.3039 21.2642 34.0982 21.7862C33.8926 22.3083 33.4903 22.7289 32.9779 22.9576C32.4655 23.1863 31.8838 23.2049 31.3578 23.0094C30.8319 22.8138 30.4036 22.4198 30.165 21.9119L26.9336 14.6691C26.8124 14.4112 26.7439 14.1318 26.7321 13.8471C26.7202 13.5625 26.7653 13.2783 26.8645 13.0113C26.9638 12.7442 27.1153 12.4997 27.3102 12.2919C27.5052 12.0841 27.7395 11.9173 27.9997 11.8012C28.2599 11.6851 28.5406 11.622 28.8254 11.6156C29.1102 11.6093 29.3934 11.6598 29.6585 11.7642C29.9236 11.8687 30.1652 12.0249 30.3691 12.2238C30.5731 12.4227 30.7354 12.6603 30.8464 12.9226L34.0778 20.1655Z" fill="#FFA500"/>
</svg>
