<svg width="21" height="20" viewBox="0 0 21 20" fill="none" xmlns="http://www.w3.org/2000/svg">
<path d="M20.6619 7.90191C20.7601 7.66475 20.7858 7.40379 20.7357 7.15204C20.6856 6.90029 20.5619 6.66906 20.3803 6.48761L13.8927 0L12.058 1.8347L16.3308 6.10743H0.000150322V8.70248H19.463C19.7196 8.70254 19.9704 8.62652 20.1838 8.48402C20.3972 8.34152 20.5636 8.13895 20.6619 7.90191ZM0.0987623 12.0981C0.000533625 12.3352 -0.0251459 12.5962 0.0249734 12.848C0.0750928 13.0997 0.198759 13.3309 0.380324 13.5124L6.86793 20L8.70263 18.1653L4.42989 13.8926H20.7605V11.2975H1.29767C1.04103 11.2973 0.79009 11.3732 0.576656 11.5158C0.363221 11.6583 0.196898 11.861 0.0987623 12.0981Z" fill="#0A84FF"/>
</svg>
