<svg width="29" height="20" viewBox="0 0 29 20" fill="none" xmlns="http://www.w3.org/2000/svg">
<path d="M27.986 3.14446C27.8234 2.54126 27.5057 1.99117 27.0644 1.54892C26.6232 1.10668 26.0738 0.787707 25.471 0.623761C23.2358 0.010002 14.2935 1.08429e-05 14.2935 1.08429e-05C14.2935 1.08429e-05 5.35255 -0.00998087 3.1159 0.576659C2.51345 0.748149 1.9652 1.07163 1.52379 1.51604C1.08237 1.96046 0.762613 2.51089 0.595206 3.11448C0.00571174 5.34971 2.09127e-06 9.98573 2.09127e-06 9.98573C2.09127e-06 9.98573 -0.00570727 14.6446 0.579505 16.857C0.907794 18.0802 1.87125 19.0465 3.09592 19.3762C5.35398 19.99 14.272 20 14.272 20C14.272 20 23.2144 20.01 25.4496 19.4248C26.0526 19.2611 26.6025 18.9429 27.0449 18.5015C27.4872 18.0602 27.8067 17.511 27.9717 16.9084C28.5626 14.6746 28.5669 10.04 28.5669 10.04C28.5669 10.04 28.5955 5.37968 27.986 3.14446V3.14446ZM11.433 14.2806L11.4402 5.71653L18.8724 10.0057L11.433 14.2806V14.2806Z" fill="#0A84FF"/>
</svg>
