<svg width="22" height="22" viewBox="0 0 22 22" fill="none" xmlns="http://www.w3.org/2000/svg">
<path d="M5 9.99103e-08H3.25C2.38805 9.99103e-08 1.5614 0.34241 0.951903 0.951903C0.34241 1.5614 0 2.38805 0 3.25V18.75C9.32843e-05 19.5686 0.309105 20.357 0.865278 20.9577C1.42145 21.5584 2.18381 21.927 3 21.99V13.25C3 12.6533 3.23705 12.081 3.65901 11.659C4.08097 11.2371 4.65326 11 5.25 11H16.75C17.3467 11 17.919 11.2371 18.341 11.659C18.7629 12.081 19 12.6533 19 13.25V21.99C19.8162 21.927 20.5785 21.5584 21.1347 20.9577C21.6909 20.357 21.9999 19.5686 22 18.75V5.786C22.0001 5.35905 21.9161 4.93625 21.7527 4.54178C21.5894 4.14731 21.3499 3.78889 21.048 3.487L18.513 0.952C18.2111 0.650085 17.8527 0.410611 17.4582 0.247264C17.0637 0.0839156 16.641 -0.000105762 16.214 9.99103e-08H16V5.75C16 6.04547 15.9418 6.33805 15.8287 6.61104C15.7157 6.88402 15.5499 7.13206 15.341 7.34099C15.1321 7.54992 14.884 7.71566 14.611 7.82873C14.3381 7.9418 14.0455 8 13.75 8H7.25C6.65326 8 6.08097 7.76295 5.65901 7.34099C5.23705 6.91903 5 6.34674 5 5.75V9.99103e-08ZM14.5 9.99103e-08H6.5V5.75C6.5 6.164 6.836 6.5 7.25 6.5H13.75C13.9489 6.5 14.1397 6.42098 14.2803 6.28033C14.421 6.13968 14.5 5.94891 14.5 5.75V9.99103e-08ZM17.5 22V13.25C17.5 13.0511 17.421 12.8603 17.2803 12.7197C17.1397 12.579 16.9489 12.5 16.75 12.5H5.25C5.05109 12.5 4.86032 12.579 4.71967 12.7197C4.57902 12.8603 4.5 13.0511 4.5 13.25V22H17.5Z" fill="#236EFF"/>
</svg>
