<svg width="90" height="81" viewBox="0 0 90 81" fill="none" xmlns="http://www.w3.org/2000/svg">
<path d="M90 34.2855L86.7141 31L78.5 39.2145L70.2855 31L67 34.2855L75.2141 42.5L67 50.7144L70.2855 54L78.5 45.7855L86.7141 54L90 50.7144L81.7852 42.5L90 34.2855Z" fill="#236EFF"/>
<path d="M54.7788 54.533C57.2278 53.2235 60.0309 52.4782 63.0163 52.4782H63.0264C63.33 52.4782 63.4717 52.1156 63.249 51.9141C60.1444 49.1409 56.5979 46.9011 52.7548 45.2863C52.7143 45.2662 52.6738 45.2561 52.6334 45.236C58.9178 40.6932 63.0062 33.31 63.0062 24.98C63.0062 11.1806 51.7934 0 37.9596 0C24.1259 0 12.9232 11.1806 12.9232 24.98C12.9232 33.31 17.0116 40.6932 23.3062 45.236C23.2657 45.2561 23.2252 45.2662 23.1847 45.2863C18.6612 47.1901 14.6031 49.9197 11.1118 53.4048C7.64063 56.8536 4.87713 60.9418 2.97548 65.4416C1.10446 69.848 0.0946859 74.569 0.000253056 79.3518C-0.00244797 79.4593 0.0164966 79.5663 0.055971 79.6664C0.0954454 79.7665 0.154651 79.8577 0.230098 79.9347C0.305546 80.0117 0.395709 80.0728 0.495275 80.1146C0.594841 80.1563 0.701797 80.1778 0.809838 80.1778H6.8716C7.30675 80.1778 7.67107 79.8252 7.68119 79.3921C7.88358 71.6161 11.0106 64.3336 16.5461 58.8138C22.2638 53.1027 29.8739 49.96 37.9698 49.96C43.7077 49.96 49.2129 51.5414 53.9591 54.5028C54.081 54.579 54.2209 54.622 54.3648 54.6273C54.5087 54.6326 54.6515 54.6 54.7788 54.533ZM37.9698 42.3049C33.3349 42.3049 28.9733 40.5019 25.6843 37.2283C24.0661 35.6218 22.7832 33.7125 21.9096 31.6104C21.036 29.5083 20.5889 27.2549 20.5941 24.98C20.5941 20.3567 22.4055 16.0053 25.6843 12.7317C28.9631 9.45816 33.3248 7.65516 37.9698 7.65516C42.6148 7.65516 46.9663 9.45816 50.2552 12.7317C51.8734 14.3382 53.1563 16.2475 54.0299 18.3496C54.9035 20.4518 55.3506 22.7052 55.3455 24.98C55.3455 29.6033 53.534 33.9547 50.2552 37.2283C46.9663 40.5019 42.6046 42.3049 37.9698 42.3049Z" fill="#236EFF"/>
<path d="M29.75 58.94C31.97 58.94 33.91 59.38 35.57 60.26C37.23 61.14 38.51 62.38 39.41 63.98C40.33 65.56 40.79 67.39 40.79 69.47C40.79 71.53 40.33 73.36 39.41 74.96C38.51 76.56 37.22 77.8 35.54 78.68C33.88 79.56 31.95 80 29.75 80H21.86V58.94H29.75ZM29.42 75.56C31.36 75.56 32.87 75.03 33.95 73.97C35.03 72.91 35.57 71.41 35.57 69.47C35.57 67.53 35.03 66.02 33.95 64.94C32.87 63.86 31.36 63.32 29.42 63.32H26.99V75.56H29.42ZM48.7869 58.94V80H43.6569V58.94H48.7869ZM57.9645 75.8H67.0245V80H52.1445V76.1L61.1445 63.14H52.1445V58.94H67.0245V62.84L57.9645 75.8ZM75.4156 58.94V71.54C75.4156 72.8 75.7256 73.77 76.3456 74.45C76.9656 75.13 77.8756 75.47 79.0756 75.47C80.2756 75.47 81.1956 75.13 81.8356 74.45C82.4756 73.77 82.7956 72.8 82.7956 71.54V58.94H87.9256V71.51C87.9256 73.39 87.5256 74.98 86.7256 76.28C85.9256 77.58 84.8456 78.56 83.4856 79.22C82.1456 79.88 80.6456 80.21 78.9856 80.21C77.3256 80.21 75.8356 79.89 74.5156 79.25C73.2156 78.59 72.1856 77.61 71.4256 76.31C70.6656 74.99 70.2856 73.39 70.2856 71.51V58.94H75.4156Z" fill="#236EFF"/>
</svg>
