<svg width="74" height="81" viewBox="0 0 74 81" fill="none" xmlns="http://www.w3.org/2000/svg">
<path d="M53.3844 53.5816C55.7396 52.3164 58.4355 51.5962 61.3065 51.5962H61.3163C61.6082 51.5962 61.7445 51.2459 61.5304 51.0512C58.5446 48.3717 55.1339 46.2075 51.4379 44.6473C51.399 44.6279 51.3601 44.6181 51.3211 44.5987C57.3649 40.2094 61.2968 33.0755 61.2968 25.0269C61.2968 11.6935 50.5133 0.890625 37.2092 0.890625C23.9051 0.890625 13.1313 11.6935 13.1313 25.0269C13.1313 33.0755 17.0632 40.2094 23.1167 44.5987C23.0778 44.6181 23.0389 44.6279 23 44.6473C18.6496 46.4867 14.7469 49.1242 11.3893 52.4916C8.05098 55.8238 5.39328 59.774 3.56444 64.1218C1.76505 68.3793 0.793942 72.9409 0.703124 77.5622C0.700527 77.666 0.718746 77.7694 0.756709 77.8661C0.794672 77.9628 0.851611 78.051 0.924169 78.1253C0.996728 78.1997 1.08344 78.2588 1.17919 78.2991C1.27495 78.3395 1.37781 78.3602 1.48171 78.3602H7.3114C7.72989 78.3602 8.08025 78.0196 8.08998 77.6011C8.28463 70.0877 11.2919 63.0512 16.6155 57.7179C22.1143 52.1996 29.4331 49.1631 37.2189 49.1631C42.7372 49.1631 48.0316 50.6911 52.5961 53.5524C52.7133 53.6261 52.8479 53.6676 52.9863 53.6727C53.1247 53.6779 53.262 53.6464 53.3844 53.5816ZM37.2189 41.7665C32.7615 41.7665 28.5669 40.0244 25.4039 36.8614C23.8476 35.3092 22.6139 33.4644 21.7737 31.4333C20.9335 29.4022 20.5035 27.2249 20.5085 25.0269C20.5085 20.5597 22.2506 16.3553 25.4039 13.1923C28.5571 10.0293 32.7518 8.28722 37.2189 8.28722C41.6861 8.28722 45.871 10.0293 49.034 13.1923C50.5903 14.7445 51.824 16.5894 52.6642 18.6205C53.5044 20.6516 53.9344 22.8289 53.9294 25.0269C53.9294 29.494 52.1873 33.6984 49.034 36.8614C45.871 40.0244 41.6764 41.7665 37.2189 41.7665ZM73.0146 64.9296H64.8394V56.7544C64.8394 56.3262 64.489 55.9758 64.0608 55.9758H58.6107C58.1824 55.9758 57.8321 56.3262 57.8321 56.7544V64.9296H49.6569C49.2287 64.9296 48.8783 65.2799 48.8783 65.7081V71.1583C48.8783 71.5865 49.2287 71.9369 49.6569 71.9369H57.8321V80.112C57.8321 80.5403 58.1824 80.8906 58.6107 80.8906H64.0608C64.489 80.8906 64.8394 80.5403 64.8394 80.112V71.9369H73.0146C73.4428 71.9369 73.7931 71.5865 73.7931 71.1583V65.7081C73.7931 65.2799 73.4428 64.9296 73.0146 64.9296Z" fill="#236EFF"/>
</svg>
