<svg width="20" height="20" viewBox="0 0 20 20" fill="none" xmlns="http://www.w3.org/2000/svg">
<path fill-rule="evenodd" clip-rule="evenodd" d="M9.53732 0C7.02767 0 4.74081 0.828958 3.38792 1.50624C3.26569 1.56735 3.15179 1.62736 3.04567 1.68514C2.83565 1.79959 2.65675 1.90627 2.51452 2.00017L4.05353 4.26591L4.77804 4.55427C7.60938 5.98272 11.4064 5.98272 14.2383 4.55427L15.0606 4.12757L16.5162 2.00017C16.2147 1.80348 15.9011 1.62589 15.5773 1.46846C14.2316 0.7984 11.9998 0 9.53732 0ZM5.95758 2.56466C5.4126 2.46268 4.87434 2.3276 4.34578 2.16018C5.61311 1.59736 7.50215 1.00008 9.53677 1.00008C10.9463 1.00008 12.2792 1.28677 13.3815 1.65014C12.0898 1.83182 10.7113 2.14018 9.39787 2.51965C8.36445 2.81857 7.15657 2.78634 5.95758 2.56466V2.56466ZM14.825 5.37823L14.6889 5.44712C11.5736 7.01836 7.44215 7.01836 4.32689 5.44712L4.19799 5.38156C-0.481289 10.5159 -4.05381 20 9.53732 20C23.1273 20 19.4676 10.3386 14.825 5.37823ZM8.9595 10.0008C8.66479 10.0008 8.38215 10.1179 8.17376 10.3263C7.96537 10.5347 7.84829 10.8173 7.84829 11.112C7.84829 11.4067 7.96537 11.6894 8.17376 11.8978C8.38215 12.1062 8.66479 12.2232 8.9595 12.2232V10.0008ZM10.0707 8.88963V8.33403H8.9595V8.88963C8.37008 8.88963 7.8048 9.12378 7.38802 9.54056C6.97124 9.95734 6.73709 10.5226 6.73709 11.112C6.73709 11.7015 6.97124 12.2667 7.38802 12.6835C7.8048 13.1003 8.37008 13.3344 8.9595 13.3344V15.5569C8.72969 15.5569 8.50552 15.4857 8.31786 15.3531C8.1302 15.2204 7.98827 15.0329 7.91163 14.8162C7.86256 14.6773 7.7603 14.5635 7.62735 14.4999C7.4944 14.4364 7.34164 14.4282 7.20268 14.4773C7.06373 14.5264 6.94996 14.6286 6.8864 14.7616C6.82284 14.8946 6.8147 15.0473 6.86377 15.1863C7.01702 15.6196 7.30085 15.9948 7.67617 16.2602C8.05149 16.5256 8.49984 16.668 8.9595 16.6681V17.2237H10.0707V16.6681C10.6601 16.6681 11.2254 16.4339 11.6422 16.0171C12.059 15.6003 12.2931 15.0351 12.2931 14.4456C12.2931 13.8562 12.059 13.291 11.6422 12.8742C11.2254 12.4574 10.6601 12.2232 10.0707 12.2232V10.0008C10.5541 10.0008 10.9658 10.3092 11.1191 10.7415C11.1419 10.8122 11.1786 10.8776 11.2271 10.9339C11.2755 10.9902 11.3348 11.0362 11.4014 11.0692C11.468 11.1021 11.5405 11.1214 11.6146 11.1259C11.6888 11.1304 11.7631 11.1199 11.8331 11.0952C11.9032 11.0704 11.9675 11.0319 12.0224 10.9818C12.0773 10.9317 12.1216 10.8712 12.1527 10.8037C12.1838 10.7362 12.201 10.6632 12.2033 10.589C12.2057 10.5147 12.1932 10.4407 12.1664 10.3714C12.0132 9.93806 11.7293 9.56287 11.354 9.2975C10.9787 9.03213 10.5304 8.88964 10.0707 8.88963ZM10.0707 13.3344V15.5569C10.3654 15.5569 10.648 15.4398 10.8564 15.2314C11.0648 15.023 11.1819 14.7404 11.1819 14.4456C11.1819 14.1509 11.0648 13.8683 10.8564 13.6599C10.648 13.4515 10.3654 13.3344 10.0707 13.3344Z" fill="#0A84FF"/>
</svg>
