<svg width="20" height="20" viewBox="0 0 20 20" fill="none" xmlns="http://www.w3.org/2000/svg">
<path d="M0 2.85714C0 2.09938 0.301019 1.37266 0.836838 0.836838C1.37266 0.301019 2.09938 0 2.85714 0H12.8571C13.6149 0 14.3416 0.301019 14.8774 0.836838C15.4133 1.37266 15.7143 2.09938 15.7143 2.85714V12.8571H20V15.7143C20 16.8509 19.5485 17.941 18.7447 18.7447C17.941 19.5485 16.8509 20 15.7143 20H4.28571C3.14907 20 2.05898 19.5485 1.25526 18.7447C0.451529 17.941 0 16.8509 0 15.7143V2.85714ZM15.7143 18.5714C16.472 18.5714 17.1988 18.2704 17.7346 17.7346C18.2704 17.1988 18.5714 16.472 18.5714 15.7143V14.2857H15.7143V18.5714ZM5 4.28571C4.81056 4.28571 4.62888 4.36097 4.49492 4.49492C4.36097 4.62888 4.28571 4.81056 4.28571 5C4.28571 5.18944 4.36097 5.37112 4.49492 5.50508C4.62888 5.63903 4.81056 5.71429 5 5.71429H10.7143C10.9037 5.71429 11.0854 5.63903 11.2194 5.50508C11.3533 5.37112 11.4286 5.18944 11.4286 5C11.4286 4.81056 11.3533 4.62888 11.2194 4.49492C11.0854 4.36097 10.9037 4.28571 10.7143 4.28571H5ZM5 8.57143C4.81056 8.57143 4.62888 8.64668 4.49492 8.78064C4.36097 8.91459 4.28571 9.09627 4.28571 9.28571C4.28571 9.47515 4.36097 9.65684 4.49492 9.79079C4.62888 9.92475 4.81056 10 5 10H10.7143C10.9037 10 11.0854 9.92475 11.2194 9.79079C11.3533 9.65684 11.4286 9.47515 11.4286 9.28571C11.4286 9.09627 11.3533 8.91459 11.2194 8.78064C11.0854 8.64668 10.9037 8.57143 10.7143 8.57143H5ZM5 12.8571C4.81056 12.8571 4.62888 12.9324 4.49492 13.0664C4.36097 13.2003 4.28571 13.382 4.28571 13.5714C4.28571 13.7609 4.36097 13.9426 4.49492 14.0765C4.62888 14.2105 4.81056 14.2857 5 14.2857H7.85714C8.04658 14.2857 8.22827 14.2105 8.36222 14.0765C8.49617 13.9426 8.57143 13.7609 8.57143 13.5714C8.57143 13.382 8.49617 13.2003 8.36222 13.0664C8.22827 12.9324 8.04658 12.8571 7.85714 12.8571H5Z" fill="#0A84FF"/>
</svg>
