<svg width="19" height="20" viewBox="0 0 19 20" fill="none" xmlns="http://www.w3.org/2000/svg">
<path d="M18.3278 6.68121L18.3278 6.68123L18.33 6.68694C18.3768 6.80905 18.3454 6.97644 18.2123 7.1007C18.2118 7.10112 18.2114 7.10155 18.2109 7.10197L17.2588 7.96827C16.6688 8.50511 16.4257 9.27336 16.4257 10C16.4257 10.7266 16.6688 11.4949 17.2588 12.0317L18.2109 12.898C18.2114 12.8985 18.2118 12.8989 18.2123 12.8993C18.3454 13.0236 18.3768 13.191 18.33 13.3131L18.33 13.313L18.3278 13.3188C18.1655 13.7578 17.9699 14.1827 17.7482 14.586L17.5693 14.8943C17.3261 15.2992 17.0529 15.6835 16.7527 16.0508C16.6562 16.163 16.4929 16.2117 16.3312 16.1603L15.1197 15.7731C14.3503 15.5272 13.5438 15.7038 12.9051 16.0671C12.2695 16.4286 11.7544 17.0237 11.5872 17.7874L11.3087 19.0595C11.3087 19.0597 11.3086 19.0599 11.3086 19.06C11.2783 19.1955 11.1741 19.3175 10.9788 19.3742C10.4754 19.4567 9.95604 19.5 9.39055 19.5C8.89592 19.5 8.37763 19.457 7.8726 19.3742C7.67737 19.3175 7.57318 19.1956 7.54285 19.0601C7.5428 19.0599 7.54275 19.0597 7.54271 19.0595L7.26709 17.8005C7.09687 17.0229 6.55302 16.4264 5.92522 16.0626C5.29227 15.6959 4.50454 15.5262 3.74352 15.7695L2.52238 16.1601C2.52226 16.1601 2.52213 16.1601 2.522 16.1602C2.35595 16.2126 2.19258 16.1608 2.10106 16.0522C1.80014 15.6847 1.5266 15.3001 1.28312 14.8947L1.10438 14.5853C0.880781 14.1834 0.68568 13.7584 0.521638 13.3177L0.520946 13.3159C0.473354 13.1896 0.506469 13.0219 0.638704 12.9001C0.638902 12.8999 0.639101 12.8997 0.639299 12.8995L1.59196 12.0319C2.18121 11.4952 2.42571 10.7272 2.42571 10C2.42571 9.27275 2.18121 8.5048 1.59196 7.96813L0.639299 7.10048C0.6391 7.1003 0.638901 7.10012 0.638702 7.09994C0.506695 6.9783 0.472658 6.81376 0.521612 6.68231L0.521634 6.68225C0.685606 6.24179 0.88112 5.81665 1.10459 5.41429L1.28275 5.10527C1.52699 4.69927 1.80072 4.31458 2.1014 3.94932C2.19227 3.83994 2.35478 3.78805 2.52137 3.84118C2.52138 3.84119 2.52139 3.84119 2.5214 3.84119L3.74527 4.23171C4.50586 4.47439 5.29269 4.30267 5.9238 3.93718C6.55149 3.57367 7.09691 2.97806 7.26738 2.19935L7.54291 0.940757C7.54293 0.940647 7.54296 0.940536 7.54298 0.940426C7.58124 0.767323 7.70743 0.653642 7.84758 0.630336L7.84806 0.630254C8.35986 0.544621 8.88695 0.5 9.42571 0.5C9.96446 0.5 10.4916 0.544621 11.0033 0.630254L11.0038 0.630335C11.1441 0.653657 11.2703 0.767468 11.3085 0.940757L11.5869 2.21234C11.7543 2.97725 12.2711 3.57149 12.9067 3.93279C13.5435 4.29477 14.3489 4.47337 15.1178 4.22821L16.3315 3.84122L16.3322 3.84099C16.4942 3.78907 16.6565 3.83782 16.7523 3.95072C17.0524 4.31587 17.3258 4.70026 17.5693 5.10574L17.7482 5.41399C17.9699 5.81727 18.1655 6.24223 18.3278 6.68121ZM9.42571 13.625C11.4321 13.625 13.0507 11.999 13.0507 9.96484C13.0507 8.00095 11.4321 6.33984 9.42571 6.33984C7.41936 6.33984 5.80071 8.00095 5.80071 9.96484C5.80071 11.999 7.41936 13.625 9.42571 13.625Z" fill="#0A84FF" stroke="#0A84FF"/>
</svg>
