<svg width="754" height="850" viewBox="0 0 754 850" fill="none" xmlns="http://www.w3.org/2000/svg">
<path d="M624 248C624 111 513 0 376 0C239 0 128 111 128 248C128 330.8 168.6 404.2 231 449.2C230.6 449.4 230.3 449.5 230.1 449.6C185.4 468.5 145.3 495.6 110.8 530.2C76.3001 564.7 49.3001 604.9 30.4001 649.7C11.9001 693.5 2.00008 740 1.00008 787.8C0.900081 792.3 4.50008 796 9.00008 796H68.9001C73.2001 796 76.8001 792.5 76.9001 788.2C78.9001 711 109.8 638.7 164.5 583.9C221 527.2 296 496 376 496C513 496 624 385 624 248ZM376 420C281 420 204 343 204 248C204 153 281 76 376 76C471 76 548 153 548 248C548 343 471 420 376 420ZM481 641H745C749.4 641 753 637.4 753 633V577C753 572.6 749.4 569 745 569H568.5L615.7 508.9C616.8 507.5 617.4 505.7 617.4 504C617.4 499.6 613.8 496 609.4 496H536.8C531.9 496 527.3 498.3 524.2 502.1L455.7 589.2C451.3 594.8 448.9 601.8 448.9 609C449 626.7 463.3 641 481 641V641ZM721 705H457C452.6 705 449 708.6 449 713V769C449 773.4 452.6 777 457 777H633.5L586.3 837.1C585.2 838.5 584.6 840.3 584.6 842C584.6 846.4 588.2 850 592.6 850H665.2C670.1 850 674.7 847.7 677.8 843.9L746.3 756.8C750.7 751.2 753.1 744.2 753.1 737C753 719.3 738.7 705 721 705V705Z" fill="white"/>
</svg>
