<svg width="22" height="23" viewBox="0 0 22 23" fill="none" xmlns="http://www.w3.org/2000/svg">
<path d="M14.25 2.5H18C18.75 2.5 19.25 3 19.25 3.75V5H3V3.75C3 3 3.625 2.5 4.25 2.5H8C8.25 1.125 9.625 0 11.125 0C12.625 0 14 1.125 14.25 2.5ZM9.25 2.5H13C12.75 1.75 11.875 1.25 11.125 1.25C10.375 1.25 9.5 1.75 9.25 2.5ZM4.25 6.25H18L16.875 18.875C16.875 19.5 16.25 20 15.625 20H6.625C6 20 5.5 19.5 5.375 18.875L4.25 6.25Z" fill="#0A84FF"/>
<path d="M6.88725 14.0938C6.82759 13.8864 6.74379 13.7031 6.63583 13.544C6.52788 13.3821 6.39577 13.2457 6.23952 13.1349C6.08612 13.0213 5.90998 12.9347 5.71112 12.875C5.51509 12.8153 5.29776 12.7855 5.05913 12.7855C4.6131 12.7855 4.22106 12.8963 3.88299 13.1179C3.54776 13.3395 3.2864 13.6619 3.0989 14.0852C2.9114 14.5057 2.81765 15.0199 2.81765 15.6278C2.81765 16.2358 2.90998 16.7528 3.09464 17.179C3.2793 17.6051 3.54066 17.9304 3.87873 18.1548C4.2168 18.3764 4.61594 18.4872 5.07617 18.4872C5.49379 18.4872 5.85032 18.4134 6.14577 18.2656C6.44407 18.1151 6.67134 17.9034 6.82759 17.6307C6.98668 17.358 7.06623 17.0355 7.06623 16.6634L7.44123 16.7188H5.19123V15.3295H8.84322V16.429C8.84322 17.196 8.68129 17.8551 8.35742 18.4062C8.03356 18.9545 7.58754 19.3778 7.01935 19.6761C6.45117 19.9716 5.8006 20.1193 5.06765 20.1193C4.24947 20.1193 3.53072 19.9389 2.9114 19.5781C2.29208 19.2145 1.80913 18.6989 1.46254 18.0312C1.11879 17.3608 0.946911 16.5653 0.946911 15.6449C0.946911 14.9375 1.04918 14.3068 1.25373 13.7528C1.46112 13.196 1.75089 12.7244 2.12305 12.3381C2.49521 11.9517 2.92844 11.6577 3.42276 11.456C3.91708 11.2543 4.45259 11.1534 5.0293 11.1534C5.52362 11.1534 5.98384 11.2259 6.40998 11.3707C6.83612 11.5128 7.21396 11.7145 7.5435 11.9759C7.87589 12.2372 8.14719 12.5483 8.35742 12.9091C8.56765 13.267 8.70259 13.6619 8.76225 14.0938H6.88725ZM17.5289 11.2727V20H15.9352L12.1383 14.5071H12.0744V20H10.2292V11.2727H11.8485L15.6156 16.7614H15.6923V11.2727H17.5289ZM20.8986 11.2727V20H19.0534V11.2727H20.8986Z" fill="#E1E1E6"/>
</svg>
