<svg width="15" height="14" viewBox="0 0 15 14" fill="none" xmlns="http://www.w3.org/2000/svg">
<path d="M9.70549 9.22093C10.1096 8.99951 10.5721 8.87348 11.0647 8.87348H11.0663C11.1164 8.87348 11.1398 8.81217 11.1031 8.7781C10.5908 8.30918 10.0056 7.93045 9.37153 7.65742C9.36485 7.65401 9.35817 7.65231 9.35149 7.6489C10.3884 6.88078 11.063 5.63236 11.063 4.22384C11.063 1.89051 9.2129 0 6.93033 0C4.64776 0 2.79933 1.89051 2.79933 4.22384C2.79933 5.63236 3.47391 6.88078 4.51251 7.6489C4.50583 7.65231 4.49915 7.65401 4.49247 7.65742C3.74609 7.97932 3.07651 8.44088 2.50044 9.03017C1.9277 9.61331 1.47172 10.3046 1.15795 11.0655C0.849227 11.8105 0.682615 12.6088 0.667034 13.4175C0.666588 13.4357 0.669714 13.4538 0.676227 13.4707C0.682741 13.4876 0.69251 13.5031 0.704958 13.5161C0.717407 13.5291 0.732284 13.5394 0.748713 13.5465C0.765141 13.5535 0.782789 13.5572 0.800615 13.5572H1.80081C1.87261 13.5572 1.93272 13.4976 1.93439 13.4243C1.96778 12.1095 2.48374 10.8781 3.3971 9.94477C4.34052 8.97908 5.59619 8.44769 6.932 8.44769C7.87876 8.44769 8.78711 8.71508 9.57023 9.21581C9.59035 9.22871 9.61344 9.23597 9.63719 9.23687C9.66093 9.23776 9.68449 9.23227 9.70549 9.22093ZM6.932 7.15328C6.16725 7.15328 5.44758 6.84842 4.9049 6.29489C4.6379 6.02325 4.42623 5.70041 4.28208 5.34497C4.13793 4.98952 4.06416 4.6085 4.06501 4.22384C4.06501 3.44209 4.3639 2.70633 4.9049 2.1528C5.44591 1.59927 6.16558 1.2944 6.932 1.2944C7.69842 1.2944 8.41642 1.59927 8.9591 2.1528C9.2261 2.42444 9.43778 2.74728 9.58192 3.10272C9.72607 3.45817 9.79984 3.83919 9.79899 4.22384C9.79899 5.0056 9.5001 5.74136 8.9591 6.29489C8.41642 6.84842 7.69675 7.15328 6.932 7.15328Z" fill="white"/>
<path d="M8.51025 11.2L10.275 13L13.2161 10" fill="white"/>
<path d="M8.51025 11.2L10.275 13L13.2161 10" stroke="white" stroke-width="2" stroke-linecap="round" stroke-linejoin="round"/>
</svg>
