<svg width="29" height="30" viewBox="0 0 29 30" fill="none" xmlns="http://www.w3.org/2000/svg">
<path d="M16.4954 28.2713C16.7569 28.1431 16.9772 27.9443 17.1315 27.6973C17.2858 27.4504 17.368 27.1651 17.3686 26.8739V18.4739C17.3686 18.0602 17.5344 17.6623 17.8312 17.3686L27.496 7.80957C27.7888 7.52059 28.0213 7.17642 28.1801 6.79698C28.3389 6.41754 28.4209 6.01036 28.4213 5.59902V1.5632C28.4205 1.35682 28.3789 1.15264 28.2991 0.962329C28.2193 0.77202 28.1027 0.599325 27.956 0.454129C27.8094 0.308934 27.6355 0.194089 27.4444 0.116168C27.2533 0.0382474 27.0487 -0.00121872 26.8423 2.86717e-05H1.57896C0.705796 2.86717e-05 0 0.697929 0 1.5632V5.59902C0 6.42798 0.333161 7.22377 0.925271 7.80957L10.5901 17.3686C10.7365 17.513 10.8528 17.6851 10.9322 17.8748C11.0117 18.0646 11.0526 18.2682 11.0527 18.4739V28.4371C11.0527 29.5977 12.2875 30.3524 13.3375 29.8329L16.4954 28.2713V28.2713Z" fill="white"/>
</svg>
