<svg width="73" height="82" viewBox="0 0 73 82" fill="none" xmlns="http://www.w3.org/2000/svg">
<path d="M60.1014 23.9247C60.1014 10.7082 49.3931 0 36.1767 0C22.9602 0 12.252 10.7082 12.252 23.9247C12.252 31.9125 16.1687 38.9934 22.1884 43.3346C22.1498 43.3539 22.1209 43.3635 22.1016 43.3732C17.7894 45.1965 13.9209 47.8108 10.5927 51.1487C7.26443 54.4769 4.65973 58.3551 2.83643 62.6769C1.05173 66.9024 0.0966668 71.3882 0.00019622 75.9995C-0.00945084 76.4336 0.337843 76.7906 0.771961 76.7906H6.55055C6.96537 76.7906 7.31267 76.4529 7.32231 76.0381C7.51526 68.5906 10.4962 61.6158 15.7731 56.3292C21.2237 50.8593 28.459 47.8494 36.1767 47.8494C49.3931 47.8494 60.1014 37.1412 60.1014 23.9247ZM36.1767 40.5176C27.012 40.5176 19.5837 33.0894 19.5837 23.9247C19.5837 14.76 27.012 7.33176 36.1767 7.33176C45.3414 7.33176 52.7696 14.76 52.7696 23.9247C52.7696 33.0894 45.3414 40.5176 36.1767 40.5176ZM46.3061 61.8376H71.7743C72.1988 61.8376 72.5461 61.4904 72.5461 61.0659V55.6635C72.5461 55.2391 72.1988 54.8918 71.7743 54.8918H54.7473L59.3007 49.0939C59.4068 48.9588 59.4647 48.7852 59.4647 48.6212C59.4647 48.1967 59.1174 47.8494 58.6929 47.8494H51.6891C51.2164 47.8494 50.7727 48.0713 50.4736 48.4379L43.8654 56.8405C43.4409 57.3807 43.2094 58.056 43.2094 58.7506C43.219 60.4581 44.5986 61.8376 46.3061 61.8376V61.8376ZM69.459 68.0118H43.9908C43.5663 68.0118 43.219 68.3591 43.219 68.7835V74.1859C43.219 74.6104 43.5663 74.9576 43.9908 74.9576H61.0178L56.4644 80.7555C56.3583 80.8906 56.3004 81.0642 56.3004 81.2282C56.3004 81.6527 56.6477 82 57.0722 82H64.076C64.5487 82 64.9924 81.7781 65.2915 81.4115L71.8997 73.0089C72.3242 72.4687 72.5557 71.7934 72.5557 71.0988C72.5461 69.3913 71.1666 68.0118 69.459 68.0118V68.0118Z" fill="#236EFF"/>
</svg>
